<svg width="256" height="256" viewBox="0 0 256 256" fill="none" xmlns="http://www.w3.org/2000/svg">
<path d="M254.025 190.428C253.245 189.578 236.841 171.925 213.667 163.031C221.175 150.604 225.5 136.049 225.5 120.5V105.5C225.5 101.358 222.142 98 218 98H203C188.826 98 175.223 101.525 163.073 108.277C155.766 78.139 134.411 56.3125 133.323 55.2165C131.915 53.7975 129.999 53 128 53C126.002 53 124.086 53.7975 122.677 55.216C121.589 56.312 100.234 78.139 92.9271 108.277C80.7776 101.526 67.1746 98 53.0001 98H38.0001C33.8581 98 30.5001 101.358 30.5001 105.5V120.5C30.5001 136.049 34.8256 150.604 42.3336 163.032C19.1596 171.925 2.75557 189.578 1.97557 190.428C-0.651934 193.289 -0.658933 197.684 1.95907 200.555C3.16707 201.879 31.9666 233 68.0001 233C79.3596 233 89.9491 229.908 99.1666 225.632C108.894 238.303 123.624 246.645 124.338 247.045C125.476 247.682 126.738 248 128.001 248C129.263 248 130.526 247.682 131.664 247.045C132.378 246.645 147.107 238.303 156.835 225.632C166.051 229.908 176.641 233 188 233C224.034 233 252.833 201.879 254.042 200.554C256.66 197.684 256.653 193.289 254.025 190.428ZM128.011 71.9465C136.092 82.0715 150.5 103.556 150.5 128C150.5 152.348 136.065 173.901 127.989 184.053C119.909 173.928 105.5 152.445 105.5 128C105.5 103.652 119.935 82.0985 128.011 71.9465ZM68.0001 218C46.5881 218 27.2906 203.469 18.3286 195.512C24.9546 189.645 37.1966 180.212 51.6941 175.645C65.8156 191.329 85.8521 201.583 108.254 202.86C96.5456 211.391 82.4796 218 68.0001 218ZM45.5001 120.5V113H53.0001C66.5551 113 79.4621 116.949 90.5831 124.436C90.5296 125.616 90.5001 126.804 90.5001 128C90.5001 153.133 102.739 174.948 112.131 187.989C75.3106 187.521 45.5001 157.429 45.5001 120.5ZM128 231.662C123.986 228.993 117.461 224.181 112.429 218.212C119.015 213.89 124.337 209.428 128 206.058C131.663 209.428 136.984 213.89 143.571 218.212C138.539 224.182 132.012 228.995 128 231.662ZM165.5 128C165.5 126.804 165.471 125.616 165.417 124.436C176.538 116.949 189.445 113 203 113H210.5V120.5C210.5 157.429 180.69 187.521 143.87 187.989C153.262 174.948 165.5 153.133 165.5 128ZM188 218C172.285 218 157.846 210.164 147.795 202.857C170.178 201.568 190.195 191.318 204.307 175.645C218.815 180.215 231.064 189.659 237.684 195.522C228.751 203.482 209.51 218 188 218Z" fill="#6B0606" fill-opacity="0.03"/>
<path d="M128 8C123.858 8 120.5 11.358 120.5 15.5V30.5C120.5 34.642 123.858 38 128 38C132.142 38 135.5 34.642 135.5 30.5V15.5C135.5 11.358 132.142 8 128 8Z" fill="#6B0606" fill-opacity="0.03"/>
<path d="M78.6065 53L68 42.3935C65.071 39.4645 60.3225 39.4645 57.3935 42.3935C54.4645 45.3225 54.4645 50.071 57.3935 53L68 63.6065C70.9285 66.535 75.677 66.536 78.6065 63.6065C81.5355 60.6775 81.5355 55.929 78.6065 53Z" fill="#6B0606" fill-opacity="0.03"/>
<path d="M198.606 42.3935C195.677 39.4645 190.929 39.4645 187.999 42.3935L177.393 53C174.465 55.929 174.465 60.6775 177.393 63.6065C180.322 66.5355 185.071 66.5355 188 63.6065L198.606 53C201.535 50.071 201.535 45.3225 198.606 42.3935Z" fill="#6B0606" fill-opacity="0.03"/>
</svg>
