<svg width="64" height="48" viewBox="0 0 64 48" fill="none" xmlns="http://www.w3.org/2000/svg">
<g clip-path="url(#clip0_1_110)">
<path d="M51.6914 33.7543C51.5695 33.6216 49.0064 30.8634 45.3854 29.4737C46.5585 27.532 47.2343 25.2576 47.2343 22.8281V20.4844C47.2343 19.8372 46.7097 19.3125 46.0625 19.3125H43.7187C41.504 19.3125 39.3785 19.8634 37.48 20.9184C36.3383 16.2092 33.0016 12.7988 32.8316 12.6276C32.6116 12.4059 32.3122 12.2812 32 12.2812C31.6877 12.2812 31.3883 12.4059 31.1683 12.6275C30.9983 12.7987 27.6615 16.2092 26.5198 20.9183C24.6215 19.8634 22.496 19.3125 20.2812 19.3125H17.9375C17.2903 19.3125 16.7656 19.8372 16.7656 20.4844V22.8281C16.7656 25.2576 17.4415 27.532 18.6146 29.4737C14.9936 30.8634 12.4305 33.6216 12.3086 33.7544C11.8981 34.2015 11.897 34.8881 12.3061 35.3366C12.4948 35.5436 16.9947 40.4062 22.625 40.4062C24.3999 40.4062 26.0545 39.9231 27.4947 39.255C29.0147 41.2348 31.3161 42.5384 31.4277 42.6008C31.6055 42.7003 31.8028 42.75 32 42.75C32.1973 42.75 32.3946 42.7002 32.5724 42.6008C32.684 42.5384 34.9854 41.2348 36.5054 39.255C37.9454 39.9231 39.6 40.4062 41.375 40.4062C47.0052 40.4062 51.5051 35.5436 51.694 35.3366C52.103 34.888 52.1019 34.2014 51.6914 33.7543ZM32.0017 15.2416C33.2643 16.8237 35.5156 20.1805 35.5156 24C35.5156 27.8044 33.2601 31.1721 31.9983 32.7584C30.7357 31.1763 28.4843 27.8195 28.4843 24C28.4843 20.1956 30.7398 16.8279 32.0017 15.2416ZM22.625 38.0625C19.2793 38.0625 16.2641 35.7921 14.8638 34.5487C15.8991 33.632 17.8119 32.158 20.0772 31.4445C22.2836 33.8951 25.4143 35.4973 28.9147 35.6969C27.0852 37.0298 24.8874 38.0625 22.625 38.0625ZM19.1093 22.8281V21.6562H20.2812C22.3992 21.6562 24.4159 22.2733 26.1536 23.443C26.1452 23.6275 26.1406 23.8131 26.1406 24C26.1406 27.9271 28.0529 31.3355 29.5204 33.3733C23.7672 33.3002 19.1093 28.5983 19.1093 22.8281ZM32 40.1972C31.3728 39.7802 30.3532 39.0282 29.5669 38.0956C30.5961 37.4202 31.4275 36.7231 31.9999 36.1966C32.5722 36.7231 33.4037 37.4202 34.4329 38.0956C33.6466 39.0284 32.6268 39.7804 32 40.1972ZM37.8593 24C37.8593 23.8131 37.8547 23.6275 37.8464 23.443C39.584 22.2733 41.6008 21.6562 43.7187 21.6562H44.8906V22.8281C44.8906 28.5983 40.2327 33.3002 34.4796 33.3733C35.9471 31.3355 37.8593 27.9271 37.8593 24ZM41.375 38.0625C38.9195 38.0625 36.6633 36.8381 35.0929 35.6964C38.5902 35.495 41.7179 33.8934 43.9229 31.4445C46.1898 32.1586 48.1036 33.6342 49.1381 34.5503C47.7423 35.7941 44.7358 38.0625 41.375 38.0625Z" fill="#6B0606"/>
<path d="M32 5.25C31.3528 5.25 30.8281 5.77469 30.8281 6.42188V8.76562C30.8281 9.41281 31.3528 9.9375 32 9.9375C32.6472 9.9375 33.1719 9.41281 33.1719 8.76562V6.42188C33.1719 5.77469 32.6472 5.25 32 5.25Z" fill="#6B0606"/>
<path d="M24.2823 12.2813L22.625 10.624C22.1674 10.1663 21.4254 10.1663 20.9678 10.624C20.5101 11.0817 20.5101 11.8236 20.9678 12.2813L22.625 13.9385C23.0826 14.3961 23.8246 14.3963 24.2823 13.9385C24.7399 13.4809 24.7399 12.7389 24.2823 12.2813Z" fill="#6B0606"/>
<path d="M43.0322 10.624C42.5746 10.1663 41.8326 10.1663 41.3749 10.624L39.7177 12.2813C39.2601 12.7389 39.2601 13.4809 39.7177 13.9385C40.1753 14.3962 40.9173 14.3962 41.375 13.9385L43.0322 12.2813C43.4898 11.8236 43.4898 11.0817 43.0322 10.624Z" fill="#6B0606"/>
</g>
<defs>
<clipPath id="clip0_1_110">
<rect width="40" height="40" fill="white" transform="translate(12 4)"/>
</clipPath>
</defs>
</svg>
